<svg width="720" height="520" viewBox="0 0 720 520" xmlns="http://www.w3.org/2000/svg">
  <defs>
    <linearGradient id="heroGradient" x1="0%" y1="0%" x2="100%" y2="100%">
      <stop offset="0%" stop-color="#1f1308" />
      <stop offset="50%" stop-color="#14141b" />
      <stop offset="100%" stop-color="#050713" />
    </linearGradient>
    <linearGradient id="accentBar" x1="0%" y1="0%" x2="100%" y2="0%">
      <stop offset="0%" stop-color="#ff6a00" stop-opacity="0.2" />
      <stop offset="100%" stop-color="#ffb703" stop-opacity="0.45" />
    </linearGradient>
    <filter id="blur" x="-10%" y="-10%" width="120%" height="120%">
      <feGaussianBlur stdDeviation="12" />
    </filter>
  </defs>
  <rect width="720" height="520" fill="url(#heroGradient)" />
  <g opacity="0.7">
    <rect x="60" y="110" width="420" height="260" rx="24" fill="#0b1524" stroke="rgba(255,255,255,0.08)" />
    <rect x="92" y="150" width="170" height="24" rx="12" fill="url(#accentBar)" />
    <rect x="92" y="190" width="266" height="18" rx="9" fill="rgba(255,255,255,0.16)" />
    <rect x="92" y="222" width="224" height="14" rx="7" fill="rgba(255,255,255,0.12)" />
    <rect x="92" y="254" width="300" height="14" rx="7" fill="rgba(255,255,255,0.12)" />
    <rect x="92" y="286" width="260" height="14" rx="7" fill="rgba(255,255,255,0.12)" />
    <rect x="92" y="318" width="130" height="36" rx="18" fill="#ff6a00" opacity="0.75" />
    <rect x="238" y="318" width="130" height="36" rx="18" fill="rgba(255,255,255,0.07)" />
  </g>
  <g opacity="0.35" filter="url(#blur)">
    <circle cx="570" cy="110" r="120" fill="rgba(255,106,0,0.45)" />
  </g>
  <g opacity="0.3">
    <rect x="480" y="220" width="150" height="180" rx="20" fill="rgba(255,255,255,0.05)" />
    <rect x="502" y="250" width="106" height="12" rx="6" fill="rgba(255,255,255,0.18)" />
    <rect x="502" y="278" width="94" height="12" rx="6" fill="rgba(255,255,255,0.14)" />
    <rect x="502" y="306" width="82" height="12" rx="6" fill="rgba(255,255,255,0.11)" />
    <rect x="502" y="334" width="118" height="12" rx="6" fill="rgba(255,255,255,0.11)" />
  </g>
  <text x="60" y="430" fill="rgba(255,255,255,0.35)" font-family="Inter, Arial, sans-serif" font-size="20" letter-spacing="6">
    PROBATEPATH PLACEHOLDER
  </text>
</svg>
