<svg width="520" height="420" viewBox="0 0 520 420" xmlns="http://www.w3.org/2000/svg">
  <defs>
    <linearGradient id="startBg" x1="0%" y1="0%" x2="100%" y2="100%">
      <stop offset="0%" stop-color="#0d0d13" />
      <stop offset="100%" stop-color="#151824" />
    </linearGradient>
    <linearGradient id="startAccent" x1="0%" y1="0%" x2="100%" y2="0%">
      <stop offset="0%" stop-color="#ff6a00" stop-opacity="0.7" />
      <stop offset="100%" stop-color="#ffb703" stop-opacity="0.4" />
    </linearGradient>
  </defs>
  <rect width="520" height="420" fill="url(#startBg)" />
  <rect x="60" y="80" width="400" height="260" rx="24" fill="rgba(255,255,255,0.05)" stroke="rgba(255,255,255,0.08)" />
  <rect x="96" y="120" width="200" height="12" rx="6" fill="rgba(255,255,255,0.16)" />
  <rect x="96" y="146" width="260" height="10" rx="5" fill="rgba(255,255,255,0.12)" />
  <rect x="96" y="172" width="260" height="10" rx="5" fill="rgba(255,255,255,0.12)" />
  <rect x="96" y="210" width="320" height="90" rx="16" fill="rgba(255,255,255,0.04)" stroke="rgba(255,255,255,0.08)" />
  <rect x="116" y="226" width="240" height="12" rx="6" fill="rgba(255,255,255,0.12)" />
  <rect x="116" y="252" width="210" height="10" rx="5" fill="rgba(255,255,255,0.12)" />
  <rect x="96" y="320" width="150" height="36" rx="18" fill="url(#startAccent)" />
  <rect x="260" y="320" width="120" height="36" rx="18" fill="rgba(255,255,255,0.07)" />
  <circle cx="380" cy="120" r="36" fill="rgba(255,255,255,0.05)" stroke="rgba(255,255,255,0.1)" />
  <path d="M360 120 l18 20 l28 -32" stroke="#ff6a00" stroke-width="6" stroke-linecap="round" stroke-linejoin="round" fill="none" />
  <text x="260" y="380" fill="rgba(255,255,255,0.28)" font-family="Inter, Arial, sans-serif" font-size="16" text-anchor="middle" letter-spacing="4">
    START TODAY – NO PRESSURE
  </text>
</svg>
